<svg version="1.1" xmlns="http://www.w3.org/2000/svg" viewBox="0 0 250 250"><desc>Created with Snap</desc><defs></defs><g transform="matrix(0.1861,0,0,0.1861,52.8773,191.6921)"><g><g transform="matrix(1.024,0,0,-1.024,0,0)"><path d="M43 349Q43 451 89 532Q135 614 214 660Q294 706 391 706Q505 706 590 651Q675 596 714 495L605 495Q576 558 521 592Q467 626 391 626Q318 626 260 592Q202 558 169 495Q136 433 136 349Q136 266 169 203Q202 141 260 107Q318 73 391 73Q467 73 521 106Q576 140 605 203L714 203Q675 103 590 48Q505 -6 391 -6Q294 -6 214 39Q135 85 89 166Q43 247 43 349Z" fill="#4a274f" style=""></path></g></g></g></svg>